#!OML:ASF F:\VICON\USERDATA\INSTALL\rory3\rory3.ASF
:FULLY-SPECIFIED
:DEGREES
55
root 0.0013791041336835008 18.375527341950725 28.63630859948546 4.2448699332494275 3.2098538082965895 -4.821532895138651
lfemur -39.02523532749354 -1.871947680020978 -17.421570245842513
ltibia 46.15931907748235
lfoot -1.5288443451580267 -8.61431913181124
ltoes -15.408305224035916
rfemur 14.508989706414528 3.193950316910992 34.076135278873856
rtibia 40.66714804594042
rfoot 25.637898705795784 0.7224822680438612
rtoes 11.243813419720864
lowerback 12.92773068809085 2.7324713142491506 6.62000372758175
upperback -2.1426560976458355 4.8228628321420235 1.3704255042015094
thorax -8.941944595420397 1.9938050572567323 -3.9440692224010276
lowerneck -19.191179535023675 -5.132904599177559 -2.001066330780143
upperneck 14.987627154801757 -7.0338596472897255 2.9225927970389773
head 7.944965036643723 -3.1571848478889577 0.42869385060936993
lclavicle -1.247494636073217e-15 2.1328125480740205e-15
lhumerus -71.42678518108099 -6.563893809771247 96.64979560015964
lradius 105.30781027839583
lwrist 33.78305754356939
lhand -25.09828928662626 3.563779751937127
lfingers 7.12502
lthumb 1.4165294052974946 33.53664612619159
rclavicle -1.247494636073217e-15 2.1328125480740205e-15
rhumerus -39.43665443610689 14.024127048389794 -94.33580295256452
rradius 115.94560367917146
rwrist -10.8181097616635
rhand -15.250018169336313 39.33214889025881
rfingers 7.12502
rthumb 10.923200326666498 10.89616811653428
56
root 0.015731783758299422 18.458871499314395 29.796434189175905 4.233448153984583 3.38098454287049 -4.849648014909566
lfemur -36.90382035586476 -1.8642719775343082 -18.00013746692924
ltibia 38.89776429577529
lfoot -0.2733986165963714 -9.518897295871541
ltoes -15.498965550654002
rfemur 15.114220322509258 4.402221360322587 34.316367995280515
rtibia 42.915905704924214
rfoot 28.00112867766282 0.24058534665071196
rtoes 15.190073089911486
lowerback 12.55329777466625 2.8966022096585418 6.7275348695746935
upperback -2.2849758657991757 5.022221102873511 1.2219967400204523
thorax -8.791597929184839 2.0836638191623496 -4.168724442853578
lowerneck -19.061201277659784 -5.167492479565507 -2.076554639862514
upperneck 15.362487094477908 -7.0935971322752955 3.0359431698796207
head 8.055980060862137 -3.1754671904367298 0.4716066593444446
lclavicle -1.0886314063699582e-15 2.2480994110820254e-15
lhumerus -72.37767503147147 -5.3197370512984055 95.87941796191117
lradius 106.86496821104636
lwrist 33.38493191553823
lhand -25.179088102613125 3.0014149870649742
lfingers 7.12502
lthumb 1.3384873237001491 32.97457135571703
rclavicle -1.0886314063699582e-15 2.2480994110820254e-15
rhumerus -39.778365194770295 14.41280826608152 -94.54633410801371
rradius 115.50804146940379
rwrist -10.802594471078592
rhand -15.208172432115509 39.19891737898938
rfingers 7.12502
rthumb 10.963770338083084 10.871436942717652
57
root 0.01349465788150897 18.485487067551517 30.47816730983697 4.069833622020502 3.4187512515428224 -5.013331568536995
lfemur -35.18716432257 -1.5841853600652045 -18.605507918764694
ltibia 32.76307131379848
lfoot 0.7361951774080648 -10.171907849751806
ltoes -15.90001345830003
rfemur 14.628706714470905 5.333505519035816 34.55466539383587
rtibia 45.942516629717815
rfoot 28.086843891718466 -0.9906369694156787
rtoes 17.13601925488993
lowerback 12.393165776229703 2.9938352308792213 6.742428603438971
upperback -2.3338494259405014 5.142330232164044 1.1405653228640684
thorax -8.71578225047824 2.1412167722536415 -4.34003448852568
lowerneck -19.058569157032746 -5.18399549141272 -2.1717656126026235
upperneck 15.547998767008295 -7.117233678275685 3.127212241804809
head 8.124801187747968 -3.178976706353507 0.5162016191785713
lclavicle -1.387659260856972e-15 2.03124605470503e-15
lhumerus -73.107754237953 -4.490262847250529 95.34312369972916
lradius 108.37877473654001
lwrist 32.86452456377664
lhand -25.023940468243214 2.300756182826886
lfingers 7.12502
lthumb 1.488316629435539 32.268751774535765
rclavicle -1.387659260856972e-15 2.03124605470503e-15
rhumerus -40.235732202205 14.700631216957074 -94.81937588119854
rradius 114.79122634394761
rwrist -10.740837905069814
rhand -15.457335600022773 39.07051236738906
rfingers 7.12502
rthumb 10.723674867189144 10.704101922257935
58
root 0.007627507087844293 18.4730676442098 31.54887064655557 3.7661305777657703 3.543181902650224 -5.120997321630037
lfemur -33.18905188073342 -1.0865516300522076 -19.10587615448052
ltibia 28.718996530903848
lfoot 1.7170622899411883 -10.532053418971456
ltoes -15.943715661040931
rfemur 13.967665036956337 5.890474682602564 34.74978378391954
rtibia 50.64572547352513
rfoot 27.093577425796 -2.581943282288034
rtoes 17.624842321571695
lowerback 12.485661933308661 3.0584740919726356 6.713930739962354
upperback -2.2595474974299825 5.230388130732948 1.1290798188548528
thorax -8.690590835054165 2.18552534042547 -4.329721825202759
lowerneck -19.065534024013242 -5.163761309303723 -2.2583845012922
upperneck 15.58329834802303 -7.079333298477438 3.2342741827001076
head 8.152630991986372 -3.1566167138549353 0.5741260905383363
lclavicle -1.2279115730054015e-15 2.1471001019573056e-15
lhumerus -73.14943929258114 -3.857904443129705 95.13381856146036
lradius 109.85790097063538
lwrist 32.31149748859335
lhand -24.733333320943846 1.7653466439302756
lfingers 7.12502
lthumb 1.7689769881090456 31.728077034017055
rclavicle -1.2279115730054015e-15 2.147100101957306e-15
rhumerus -40.48376187306071 14.987277828891715 -95.06719482231652
rradius 114.00097493123283
rwrist -10.596989991284154
rhand -15.801743890349703 38.99356034091925
rfingers 7.12502
rthumb 10.391666835048373 10.485260251045212
59
root -0.011414940329409234 18.401473347875474 32.32625099048801 3.258893407582646 3.6512313094374367 -5.222690872179894
lfemur -31.820583813972206 -0.664893351649857 -19.790326602504877
ltibia 25.867977410935644
lfoot 1.814396716033101 -11.009225634254136
ltoes -15.481799659266779
rfemur 12.203388259673044 5.771429831354421 34.52694401895682
rtibia 55.7685834440607
rfoot 25.153647891790463 -4.597837429014731
rtoes 16.67298824493299
lowerback 12.721292945089987 3.022812560077266 6.4384904331129444
upperback -2.109994142089932 5.161212285446714 1.1129249936868482
thorax -8.733930664043925 2.1661821875387757 -4.259569508019706
lowerneck -19.084931757140982 -5.155771196224009 -2.3635428244285475
upperneck 15.46314361022883 -7.057496554833033 3.3193913578503946
head 8.12991494673925 -3.143361805343341 0.6309080755508506
lclavicle -1.7414643070082934e-15 1.7745728879613022e-15
lhumerus -73.07638837317879 -3.677165439181424 95.18820676380898
lradius 110.9432437301566
lwrist 31.6486322416264
lhand -24.541324899411954 1.3581725978864334
lfingers 7.12502
lthumb 1.954424636408158 31.319589909871098
rclavicle -1.7414643070082934e-15 1.7745728879613022e-15
rhumerus -40.99598087372402 14.970090745077535 -95.48862720259939
rradius 112.91262857856611
rwrist -10.466705944058953
rhand -16.197645227967502 38.88376404964131
rfingers 7.12502
rthumb 10.009816170058553 10.208431990130158
60
root -0.03547767072999433 18.292311889752977 33.749459580833054 2.664588192487416 3.939447012005712 -5.109027729939319
lfemur -29.98249618281306 -0.2770734239927871 -20.361585842324395
ltibia 25.430626596313644
lfoot 1.3731014829474582 -11.316975952526736
ltoes -13.361734189710196
rfemur 10.459206367182635 5.127371318186233 33.99195457519011
rtibia 62.520971805717366
rfoot 23.261026192123474 -6.544028969449561
rtoes 15.513012062707716
lowerback 13.135268478482903 2.9543063271254004 6.042937191064922
upperback -1.8581142770238617 5.03094401089203 1.1134415555615327
thorax -8.80023535762809 2.122777852950922 -3.9578392780880782
lowerneck -19.043638672503516 -5.105669841502813 -2.4404356551001274
upperneck 15.300569657075593 -6.98013021894924 3.4424192013138275
head 8.086483649846635 -3.1031520197773705 0.7034729365988439
lclavicle -1.5615211890840828e-15 1.9050329741371285e-15
lhumerus -72.0961768866114 -3.678529971854923 95.58673779298101
lradius 111.93786149982623
lwrist 31.10228512322325
lhand -24.44985970801812 1.2808234202906097
lfingers 7.12502
lthumb 2.0427777650020884 31.24645611604999
rclavicle -1.561521189084083e-15 1.9050329741371285e-15
rhumerus -41.31381765627192 14.83753414132661 -95.96061441886748
rradius 111.76127027844466
rwrist -10.230090167017002
rhand -16.49412590181792 38.80806123287794
rfingers 7.12502
rthumb 9.723727523372418 9.966077575850406
61
root -0.07334093574666928 18.128045137592206 34.642210269575365 1.9954655868570428 4.207288285821676 -4.853792786082148
lfemur -28.52965291831122 -0.12491578238426765 -21.1365600639535
ltibia 26.286740795620613
lfoot -0.3850852575764958 -11.554514732184852
ltoes -10.116844757950993
rfemur 7.715628533607212 3.862224950613207 32.83900063242828
rtibia 69.44628287588054
rfoot 21.129121948579126 -8.449850416627065
rtoes 14.024103127210486
lowerback 13.613398186369924 2.8048437850568133 5.341888831706236
upperback -1.5673229959663466 4.74237843647486 1.0516070705202698
thorax -8.90901463636312 2.0169301180927954 -3.5662512913209716
lowerneck -19.026828303499975 -5.055131369718273 -2.5008400445156083
upperneck 15.096354546306177 -6.915105484063401 3.5586409311292653
head 8.026836000212512 -3.0650835789295767 0.7711844714375544
lclavicle -1.833147448947637e-15 1.7079758045804194e-15
lhumerus -70.78165891493461 -4.19015331092524 96.21815631353816
lradius 112.58577155847911
lwrist 30.680695951294233
lhand -24.559515357918286 1.3671271990071245
lfingers 7.12502
lthumb 1.9368949249841778 31.340522432918775
rclavicle -1.833147448947637e-15 1.7079758045804194e-15
rhumerus -41.89534682667463 14.309495435137947 -96.61313231328761
rradius 110.25015310868298
rwrist -9.929753943836916
rhand -16.75063480339995 38.67445906966198
rfingers 7.12502
rthumb 9.476072628029597 9.707932808157098
